<svg id="Group_26116" data-name="Group 26116" xmlns="http://www.w3.org/2000/svg" xmlns:xlink="http://www.w3.org/1999/xlink" width="23.999" height="24" viewBox="0 0 23.999 24">
  <defs>
    <clipPath id="clip-path">
      <rect id="Rectangle_556" data-name="Rectangle 556" width="23.999" height="23.999" fill="none"/>
    </clipPath>
  </defs>
  <g id="Group_26109" data-name="Group 26109" transform="translate(0 0)" opacity="0">
    <g id="Group_26108" data-name="Group 26108" transform="translate(0 0)">
      <g id="Group_26107" data-name="Group 26107" clip-path="url(#clip-path)">
        <rect id="Rectangle_555" data-name="Rectangle 555" width="23.999" height="23.999" transform="translate(0 0)" fill="#fff"/>
      </g>
    </g>
  </g>
  <path id="Path_28914" data-name="Path 28914" d="M12,0A12,12,0,1,0,24,12,12,12,0,0,0,12,0m3.758,7.276H14.4c-1.042,0-1.282.48-1.282,1.2v1.6H15.6l-.322,2.558h-2.16v6.48H10.559v-6.48H8.4V10.082h2.16V8.239a3.087,3.087,0,0,1,3.278-3.36c.883,0,1.68.082,1.92.082Z" transform="translate(0 -0.002)" fill="#fff"/>
</svg>
