<svg xmlns="http://www.w3.org/2000/svg" xmlns:xlink="http://www.w3.org/1999/xlink" width="120" height="64" viewBox="0 0 120 64">
  <defs>
    <clipPath id="clip-path">
      <rect id="Rectangle_4721" data-name="Rectangle 4721" width="120" height="64" fill="none"/>
    </clipPath>
  </defs>
  <g id="Group_27859" data-name="Group 27859" clip-path="url(#clip-path)">
    <path id="Path_29061" data-name="Path 29061" d="M1.53,2.243c.037.567.037,1.062.037,3.823V9.181c0,1.7,0,3.1-.09,3.841-.072.513-.162.9-.522.973a2.83,2.83,0,0,1-.54.071c-.108,0-.144.053-.144.106,0,.106.09.142.289.142.27,0,.667-.018,1.026-.036.361,0,.667-.019.739-.019.522,0,1.08.019,1.837.054.756.018,1.692.053,2.989.053.954,0,1.009-.071,1.135-.477a11.179,11.179,0,0,0,.27-1.77c0-.194-.018-.265-.108-.265-.108,0-.144.089-.162.23a2.447,2.447,0,0,1-.469,1.061c-.432.513-1.224.531-2.179.531-1.4,0-1.873-.124-2.161-.408-.325-.318-.4-1.451-.4-4.053V6.066c0-2.761,0-3.256.036-3.823.036-.619.18-.92.7-1.009a4.255,4.255,0,0,1,.594-.053c.072,0,.144-.036.144-.106,0-.106-.09-.142-.288-.142-.54,0-1.855.053-1.945.053S1.1.933.288.933C.09.933,0,.968,0,1.075c0,.07.072.106.144.106a3.4,3.4,0,0,1,.612.053c.594.124.739.407.774,1.009" transform="translate(0 -0.685)" fill="#fff"/>
    <path id="Path_29062" data-name="Path 29062" d="M32.345,1.181a2.37,2.37,0,0,1,.558.071c.4.088.577.389.612.991.036.567.036,1.062.036,3.823V9.181c0,1.7,0,3.1-.09,3.841-.072.513-.162.9-.522.973a2.842,2.842,0,0,1-.54.071c-.109,0-.144.053-.144.106,0,.106.09.142.288.142.54,0,1.675-.054,1.765-.054s1.225.054,2.215.054c.2,0,.288-.054.288-.142,0-.053-.036-.106-.144-.106A8.017,8.017,0,0,1,35.856,14c-.54-.071-.648-.46-.7-.973-.09-.743-.09-2.142-.09-3.841V6.066c0-2.761,0-3.256.036-3.823.036-.619.18-.92.666-1.009a2.7,2.7,0,0,1,.45-.053c.072,0,.144-.036.144-.106,0-.106-.09-.142-.288-.142-.54,0-1.675.053-1.765.053S33.083.933,32.489.933c-.2,0-.288.035-.288.142,0,.07.072.106.144.106" transform="translate(-23.486 -0.685)" fill="#fff"/>
    <path id="Path_29063" data-name="Path 29063" d="M51.6,13.629c.486,0,1.351-.054,1.512-.054.144,0,1.008.054,1.675.054.216,0,.324-.035.324-.16,0-.052-.072-.089-.144-.089a3.331,3.331,0,0,1-.685-.089.569.569,0,0,1-.468-.548c0-.3,0-.62.018-.9l.72-8.212h.072c.2.477,2.215,4.725,2.377,5.044.09.177,1.639,3.239,2.107,4.107.342.638.432.814.559.814.162,0,.216-.159.594-.938l4.411-9.2h.054l.864,9.133c.036.319.018.62-.072.638s-.125.052-.125.124c0,.089.089.142.5.177.666.052,2.611.106,3.007.106.216,0,.378-.054.378-.16,0-.071-.054-.089-.144-.089a3.975,3.975,0,0,1-1.17-.159c-.774-.248-.9-1.239-.972-1.876L65.791.477C65.754.142,65.7,0,65.574,0s-.2.124-.271.283L60.009,11.4,54.5.266c-.09-.2-.162-.266-.27-.266s-.18.124-.2.318l-1.3,11.54c-.072.672-.127,1.363-.721,1.469a2.351,2.351,0,0,1-.54.053c-.09,0-.18.036-.18.089,0,.124.126.16.306.16" transform="translate(-37.411 0)" fill="#fff"/>
    <path id="Path_29064" data-name="Path 29064" d="M117.371,1.181a3.4,3.4,0,0,1,.612.053c.594.124.739.407.775,1.009.036.567.036,1.062.036,3.823V9.181c0,1.7,0,3.1-.09,3.841-.072.513-.162.9-.522.973a2.828,2.828,0,0,1-.541.071c-.108,0-.144.053-.144.106,0,.106.09.142.288.142.54,0,1.585-.054,1.729-.054s1.189.054,2.071.054c.2,0,.288-.054.288-.142,0-.053-.036-.106-.144-.106a6.293,6.293,0,0,1-.7-.071c-.54-.071-.648-.46-.7-.973-.09-.743-.09-2.142-.09-3.841V7.446h.09c.864,1.045,4.682,5.1,5.492,5.753A3.75,3.75,0,0,0,128,14.279c.4.035.739.035,1.243.035h.919c.305,0,.4-.054.4-.142,0-.07-.108-.106-.234-.106a3.36,3.36,0,0,1-1.116-.231c-.865-.354-1.171-.636-2.683-2.018-.738-.672-4.485-4.478-4.953-4.99.378-.443,3.512-3.452,3.962-3.877a6.66,6.66,0,0,1,1.945-1.521,2.691,2.691,0,0,1,1.008-.248c.144,0,.18-.036.18-.124s-.071-.124-.27-.124c-.45,0-1.639.053-1.729.053-.432,0-.991-.053-1.351-.053-.126,0-.217.035-.217.124,0,.071.072.106.162.142a.348.348,0,0,1,.234.371c0,.3-.468.762-.972,1.275-.649.69-3.909,3.947-4.214,4.283h-.072V6.066c0-2.761,0-3.256.036-3.823.036-.619.181-.92.666-1.009a2.691,2.691,0,0,1,.45-.053c.072,0,.144-.036.144-.106,0-.106-.09-.142-.289-.142-.54,0-1.584.053-1.747.053-.107,0-1.17-.053-1.98-.053-.2,0-.288.035-.288.142,0,.07.072.106.144.106" transform="translate(-85.498 -0.685)" fill="#fff"/>
    <path id="Path_29065" data-name="Path 29065" d="M163.334,13.877a7,7,0,0,0,7.185-7.24c0-4.124-3.025-6.638-7.077-6.638a6.908,6.908,0,0,0-7.1,6.921,6.688,6.688,0,0,0,6.988,6.956M163.315.6c2.845,0,5.475,2.284,5.475,6.531,0,5.151-3.35,6.072-4.971,6.072-3.241,0-5.762-2.656-5.762-6.78,0-3.876,2.251-5.823,5.258-5.823" transform="translate(-114.03)" fill="#fff"/>
    <path id="Path_29066" data-name="Path 29066" d="M207.855,1.181a3.4,3.4,0,0,1,.612.053c.594.124.738.407.774,1.009.037.567.037,1.062.037,3.823V9.181c0,1.7,0,3.1-.09,3.841-.073.513-.162.9-.522.973a2.827,2.827,0,0,1-.541.071c-.107,0-.143.053-.143.106,0,.106.089.142.287.142.541,0,1.585-.054,1.729-.054s1.189.054,2.073.054c.2,0,.286-.054.286-.142,0-.053-.035-.106-.144-.106a6.27,6.27,0,0,1-.7-.071c-.541-.071-.649-.46-.7-.973-.09-.743-.09-2.142-.09-3.841V7.446h.09c.864,1.045,4.683,5.1,5.494,5.753a3.741,3.741,0,0,0,2.177,1.08c.4.035.738.035,1.241.035h.919c.305,0,.395-.054.395-.142,0-.07-.106-.106-.232-.106a3.36,3.36,0,0,1-1.118-.231c-.863-.354-1.17-.636-2.683-2.018-.738-.672-4.483-4.478-4.951-4.99.378-.443,3.511-3.452,3.962-3.877a6.638,6.638,0,0,1,1.943-1.521,3.1,3.1,0,0,1,.683-.212,1.518,1.518,0,0,1,.307.069c.468.176.7.442.991,1.381l3.206,10.5c.359,1.2.449,1.4.629,1.4.218,0,.307-.2.6-.939.648-1.646,3.114-8.123,3.764-9.823h.035l3.53,9.841c.253.69.359.921.539.921.2,0,.288-.213.757-1.522.7-1.982,2.52-7.611,3.314-9.859.343-.973.629-1.717,1.17-1.911a2.393,2.393,0,0,1,.612-.088c.109,0,.161-.053.161-.142,0-.07-.09-.106-.251-.106-.558,0-1.333.053-1.459.053-.163,0-.918-.053-1.837-.053-.215,0-.308.035-.308.124,0,.071.073.124.163.124.827,0,1.026.212,1.026.53a3.912,3.912,0,0,1-.2,1.133c-.629,2.265-2.286,7.4-2.771,9.027h-.076L228.959,1.836c-.215-.6-.324-.833-.449-.833-.109,0-.179.089-.451.814l-3.818,10.089h-.035c-.27-.938-2.142-7.434-2.412-8.566a13.241,13.241,0,0,1-.343-1.629.459.459,0,0,1,.234-.425,1.79,1.79,0,0,1,.7-.106c.09,0,.179-.019.179-.124,0-.071-.073-.124-.324-.124-.9,0-1.693.053-1.856.053-.144,0-.713-.028-1.376-.043a.851.851,0,0,0-.135-.009l-.225,0-.389,0a.7.7,0,0,0-.169.019c-.447.015-.893.034-.946.034-.432,0-.99-.053-1.35-.053-.125,0-.215.035-.215.124,0,.071.071.106.161.142a.347.347,0,0,1,.234.371c0,.3-.468.762-.972,1.275-.648.69-3.908,3.947-4.214,4.283h-.071V6.066c0-2.761,0-3.256.035-3.823.036-.619.18-.92.666-1.009a2.707,2.707,0,0,1,.45-.053c.072,0,.143-.036.143-.106,0-.106-.09-.142-.287-.142-.54,0-1.585.053-1.746.053-.108,0-1.171-.053-1.982-.053-.2,0-.288.035-.288.142,0,.07.072.106.145.106" transform="translate(-151.491 -0.685)" fill="#fff"/>
    <path id="Path_29067" data-name="Path 29067" d="M322.562,1.181a2.373,2.373,0,0,1,.558.071c.395.088.575.389.613.991.033.567.033,1.062.033,3.823V9.181c0,1.7,0,3.1-.087,3.841-.073.513-.163.9-.523.973a2.836,2.836,0,0,1-.539.071c-.109,0-.147.053-.147.106,0,.106.093.142.288.142.539,0,1.676-.054,1.766-.054s1.224.054,2.215.054c.2,0,.288-.054.288-.142,0-.053-.038-.106-.145-.106A8.094,8.094,0,0,1,326.07,14c-.539-.071-.646-.46-.7-.973-.09-.743-.09-2.142-.09-3.841V6.066c0-2.761,0-3.256.035-3.823.035-.619.18-.92.667-1.009a2.675,2.675,0,0,1,.449-.053c.073,0,.144-.036.144-.106,0-.106-.09-.142-.288-.142-.539,0-1.674.053-1.763.053S323.3.933,322.7.933c-.2,0-.286.035-.286.142,0,.07.071.106.145.106" transform="translate(-235.152 -0.685)" fill="#fff"/>
    <path id="Path_29068" data-name="Path 29068" d="M341.53,13.629c.811,0,1.567-.054,1.728-.054s.882.054,1.91.054c.215,0,.322-.035.322-.142,0-.07-.052-.106-.144-.106a3.952,3.952,0,0,1-.9-.107c-.487-.141-.667-.6-.7-2.053l-.234-8.478c.574.637,2.61,2.867,4.7,5.08,1.908,2.018,4.5,4.619,4.7,4.8.955.938,1.173,1.133,1.317,1.133.125,0,.161-.088.161-1.257l.038-10.371c0-1.063.071-1.452.667-1.576a1.611,1.611,0,0,1,.43-.053c.125,0,.2-.053.2-.124,0-.106-.125-.124-.324-.124-.738,0-1.334.053-1.532.053S352.8.248,351.991.248c-.215,0-.359.018-.359.124,0,.071.019.124.144.124a4.853,4.853,0,0,1,.882.088c.558.141.683.531.7,1.681l.2,8.993c-.577-.585-2.539-2.744-4.322-4.62-2.773-2.92-5.456-5.77-5.726-6.071-.18-.177-.487-.567-.631-.567s-.2.194-.2.885l-.017,10.142c0,1.611-.09,2.124-.542,2.247a2.588,2.588,0,0,1-.738.107c-.09,0-.144.036-.144.106,0,.124.109.142.289.142" transform="translate(-248.881)" fill="#fff"/>
    <path id="Path_29069" data-name="Path 29069" d="M406.928,6.991c-.541,0-1.676.053-1.764.053s-1.225-.053-2.038-.053c-.2,0-.286.036-.286.141,0,.072.073.107.144.107a3.487,3.487,0,0,1,.612.052c.719.2.811.39.811,1.824v3.009a.643.643,0,0,1-.362.62,4.989,4.989,0,0,1-2.052.372,6.623,6.623,0,0,1-4.719-1.895,7.162,7.162,0,0,1-1.908-4.9,5.629,5.629,0,0,1,1.783-4.495A5.822,5.822,0,0,1,401,.655c2.324,0,3.78.762,4.232,1.434a2.708,2.708,0,0,1,.378,1.167c.016.16.035.267.125.267.125,0,.163-.089.163-.372a22.128,22.128,0,0,1,.125-2.513c0-.071-.035-.142-.215-.16A9.054,9.054,0,0,1,404.354.3,15.758,15.758,0,0,0,401.6,0a8.964,8.964,0,0,0-4.788,1.115A6.674,6.674,0,0,0,393.8,6.939a6.848,6.848,0,0,0,2.144,5.044,9.949,9.949,0,0,0,9.743,1.1c.215-.124.232-.159.232-.956V10.142c0-.743,0-1.274.038-1.841.035-.619.18-.92.667-1.01a2.748,2.748,0,0,1,.449-.052c.073,0,.142-.035.142-.107,0-.105-.088-.141-.286-.141" transform="translate(-287.214)" fill="#fff"/>
    <path id="Path_29070" data-name="Path 29070" d="M56.076,76.294a8.336,8.336,0,0,1,5.515-1.672c3.325,0,5.412,1.089,6.056,2.052a3.839,3.839,0,0,1,.541,1.672c.025.228.051.38.181.38.181,0,.232-.126.232-.532a31.565,31.565,0,0,1,.18-3.6c0-.1-.051-.2-.309-.228a13.007,13.007,0,0,1-2.087-.253,22.4,22.4,0,0,0-3.943-.431,12.839,12.839,0,0,0-6.856,1.6,9.557,9.557,0,0,0-4.3,8.334,9.809,9.809,0,0,0,3.067,7.22c2.861,2.458,6.521,2.711,8.48,2.711a12.928,12.928,0,0,0,5.463-1.139c.309-.178.336-.229.336-1.368V88.2c0-1.064,0-1.824.051-2.635.051-.887.258-1.318.953-1.445a3.928,3.928,0,0,1,.644-.074c.1,0,.207-.052.207-.153,0-.151-.128-.2-.413-.2-.773,0-2.4.076-2.526.076s-1.752-.076-2.913-.076c-.283,0-.412.051-.412.2,0,.1.1.153.206.153a4.973,4.973,0,0,1,.877.074c1.03.279,1.159.558,1.159,2.61v4.307a.918.918,0,0,1-.516.886,7.151,7.151,0,0,1-2.938.532,9.463,9.463,0,0,1-6.752-2.711,10.238,10.238,0,0,1-2.732-7.017c0-2.963,1.057-5.269,2.552-6.434" transform="translate(-37.402 -54.085)" fill="#fff"/>
    <path id="Path_29071" data-name="Path 29071" d="M132.554,93.562a15.935,15.935,0,0,0,.388-2.534c0-.278-.027-.38-.155-.38-.155,0-.206.128-.233.33a3.5,3.5,0,0,1-.67,1.52c-.618.734-1.753.76-3.118.76-2.011,0-2.681-.178-3.093-.582-.463-.457-.567-2.078-.567-5.8V82.365c0-3.951,0-4.661.052-5.472.052-.886.258-1.317,1.005-1.445a6.139,6.139,0,0,1,.85-.075c.1,0,.207-.051.207-.152,0-.152-.129-.2-.413-.2-.774,0-2.654.076-2.784.076s-1.753-.076-2.912-.076c-.283,0-.413.05-.413.2,0,.1.1.152.206.152a4.927,4.927,0,0,1,.877.075c.85.178,1.056.583,1.108,1.445.052.811.052,1.521.052,5.472v4.458c0,2.432,0,4.434-.13,5.5-.1.734-.231,1.291-.747,1.392a4.047,4.047,0,0,1-.772.1c-.155,0-.206.076-.206.152,0,.151.128.2.412.2.386,0,.954-.026,1.468-.052.516,0,.954-.024,1.057-.024.748,0,1.547.024,2.63.076,1.082.025,2.422.076,4.278.076,1.366,0,1.443-.1,1.623-.684" transform="translate(-88.031 -55.065)" fill="#fff"/>
    <path id="Path_29072" data-name="Path 29072" d="M240.434,75.02c-1.187,0-2.192.076-2.811.076-.127,0-1.752-.076-2.913-.076-.281,0-.411.05-.411.2,0,.1.1.152.206.152a4.923,4.923,0,0,1,.877.075c.849.178,1.057.582,1.106,1.444.052.811.052,1.521.052,5.472v4.458c0,2.432,0,4.433-.128,5.5-.1.734-.232,1.291-.747,1.392a4.052,4.052,0,0,1-.773.1c-.156,0-.208.076-.208.152,0,.151.13.2.414.2.388,0,.979-.052,1.494-.052.541-.024.981-.024,1.031-.024.1,0,.825.024,1.572.076.749.025,1.572.076,1.856.076,4.407,0,6.572-2.812,6.572-5.523,0-2.964-2.551-4.762-4.459-5.344,1.21-1.242,2.423-2.483,2.423-4.56,0-1.266-.929-3.8-5.154-3.8m4.972,14.818a3.413,3.413,0,0,1-3.634,3.6,6.135,6.135,0,0,1-2.267-.38c-.8-.38-.8-.734-.877-1.976-.024-.38-.024-3.522-.024-5.472V84.164c0-.127.052-.177.153-.177.388,0,1.676,0,2.01.049a4.321,4.321,0,0,1,2.14.735,6.028,6.028,0,0,1,2.5,5.066m-2.7-7.193c-.541.607-.9.658-2.345.658a9.255,9.255,0,0,1-1.572-.1c-.127-.051-.179-.1-.179-.279V76.134c0-.152.078-.228.307-.279a5.894,5.894,0,0,1,1.239-.127c2.525,0,3.478,2.255,3.478,4.357a3.89,3.89,0,0,1-.927,2.56" transform="translate(-170.884 -55.066)" fill="#fff"/>
    <path id="Path_29073" data-name="Path 29073" d="M298.1,91.341c-.1.734-.232,1.291-.747,1.392a4.073,4.073,0,0,1-.773.1c-.01,0-.016,0-.025,0s-.038,0-.06,0a3.363,3.363,0,0,1-1.031-.152c-.542-.152-1.289-.557-2.215-2.812-1.572-3.85-5.62-14.312-6.007-15.275-.307-.785-.411-.912-.565-.912s-.258.152-.567.989L280.263,90.4c-.463,1.266-.979,2.228-2.163,2.38-.208.026-.567.051-.747.051-.13,0-.234.05-.234.152,0,.151.156.2.492.2,1.21,0,2.626-.076,2.91-.076s1.393.076,2.012.076c.232,0,.385-.052.385-.2,0-.1-.078-.152-.258-.152H282.4c-.437,0-.979-.228-.979-.735a5.211,5.211,0,0,1,.362-1.7l1.546-4.484a.27.27,0,0,1,.258-.2h5.542a.222.222,0,0,1,.229.152l2.4,6.232c.154.4,0,.633-.156.684-.1.026-.18.077-.18.178,0,.152.281.152.773.177,1.778.052,3.66.052,4.045.052a1.4,1.4,0,0,0,.3-.028.954.954,0,0,0,.248.028c.388,0,.955-.026,1.468-.052.518,0,.955-.024,1.059-.024.747,0,1.546.024,2.629.076,1.083.025,2.421.076,4.277.076,1.367,0,1.442-.1,1.624-.684a15.943,15.943,0,0,0,.385-2.533c0-.279-.026-.38-.154-.38-.154,0-.206.128-.232.33a3.5,3.5,0,0,1-.671,1.52c-.617.734-1.752.76-3.118.76-2.01,0-2.679-.178-3.093-.582-.463-.456-.567-2.078-.567-5.8V81.385c0-3.952,0-4.661.054-5.472.05-.887.258-1.317,1-1.445a6.108,6.108,0,0,1,.848-.075c.1,0,.208-.051.208-.152,0-.152-.13-.2-.414-.2-.773,0-2.655.076-2.783.076s-1.754-.076-2.913-.076c-.284,0-.414.05-.414.2,0,.1.1.152.208.152a4.9,4.9,0,0,1,.875.075c.851.178,1.057.583,1.109,1.445.052.811.052,1.52.052,5.472v4.458c0,2.432,0,4.433-.13,5.5m-9.31-6.537H283.87c-.076,0-.128-.051-.076-.177l2.267-6.841c.13-.378.258-.378.385,0l2.452,6.841c.024.1.024.177-.1.177" transform="translate(-202.113 -54.085)" fill="#fff"/>
    <path id="Path_29074" data-name="Path 29074" d="M16.111,172.645c-.1.024-.18.075-.18.176,0,.152.284.152.773.177,1.778.052,3.66.052,4.046.052a1.129,1.129,0,0,0,.377-.05.723.723,0,0,0,.319.05c.387,0,.954-.026,1.469-.052.516,0,.954-.024,1.057-.024.747,0,1.546.024,2.629.076,1.083.025,2.422.076,4.277.076,1.367,0,1.444-.1,1.624-.684a15.869,15.869,0,0,0,.388-2.534c0-.279-.027-.38-.156-.38-.154,0-.206.127-.232.33a3.5,3.5,0,0,1-.669,1.519c-.619.734-1.754.76-3.12.76-2.01,0-2.68-.178-3.092-.582-.463-.455-.566-2.078-.566-5.8v-4.508c0-3.951,0-4.661.051-5.472.052-.886.258-1.317,1.005-1.444a6.077,6.077,0,0,1,.85-.076c.1,0,.206-.051.206-.152,0-.153-.129-.2-.412-.2-.774,0-2.655.077-2.784.077s-1.753-.077-2.913-.077c-.283,0-.412.051-.412.2,0,.1.1.152.206.152a4.87,4.87,0,0,1,.877.076c.85.177,1.057.582,1.109,1.444.051.811.051,1.521.051,5.472V165.7c0,2.433,0,4.434-.129,5.5-.1.734-.232,1.291-.748,1.392a3.9,3.9,0,0,1-.772.1.327.327,0,0,0-.1.014.6.6,0,0,0-.133-.014,3.382,3.382,0,0,1-1.031-.152c-.541-.152-1.288-.557-2.216-2.812-1.572-3.85-5.618-14.313-6.006-15.275-.309-.785-.412-.912-.567-.912s-.258.152-.567.987l-5.85,15.733c-.464,1.266-.979,2.229-2.165,2.382-.206.024-.567.05-.748.05-.128,0-.232.051-.232.152,0,.151.155.2.49.2,1.211,0,2.628-.076,2.912-.076s1.392.076,2.01.076c.232,0,.387-.052.387-.2,0-.1-.077-.152-.257-.152H6.91c-.438,0-.979-.228-.979-.735a5.26,5.26,0,0,1,.361-1.7l1.546-4.484a.269.269,0,0,1,.258-.2h5.54a.226.226,0,0,1,.233.152l2.4,6.231c.155.405,0,.633-.155.685M13.3,164.664H8.379c-.077,0-.128-.051-.077-.178l2.268-6.839q.193-.571.386,0l2.448,6.839c.026.1.026.178-.1.178" transform="translate(-1.187 -112.703)" fill="#fff"/>
    <path id="Path_29075" data-name="Path 29075" d="M118.957,172.177c-.1.734-.232,1.291-.748,1.392a3.9,3.9,0,0,1-.772.1c-.156,0-.206.076-.206.152,0,.151.129.2.412.2.386,0,.954-.026,1.469-.052.515,0,.954-.024,1.057-.024.748,0,1.545.024,2.629.076,1.082.025,2.422.076,4.278.076,1.365,0,1.443-.1,1.623-.684a15.878,15.878,0,0,0,.388-2.534c0-.279-.027-.38-.156-.38-.155,0-.206.127-.232.33a3.5,3.5,0,0,1-.67,1.52c-.618.734-1.752.76-3.118.76-2.01,0-2.681-.178-3.093-.583-.464-.455-.566-2.078-.566-5.8v-4.508c0-3.951,0-4.661.051-5.472.051-.887.258-1.317,1.006-1.444a6.068,6.068,0,0,1,.85-.076c.1,0,.206-.051.206-.152,0-.153-.129-.2-.413-.2-.773,0-2.654.077-2.783.077s-1.753-.077-2.913-.077c-.284,0-.412.051-.412.2,0,.1.1.152.206.152a4.849,4.849,0,0,1,.876.076c.851.177,1.057.582,1.11,1.444.051.811.051,1.521.051,5.472v4.458c0,2.432,0,4.433-.129,5.5" transform="translate(-85.218 -113.68)" fill="#fff"/>
    <path id="Path_29076" data-name="Path 29076" d="M205.179,171.606c1.366,1.342,1.674,1.62,1.882,1.62.179,0,.232-.126.232-1.8l.052-14.845c0-1.521.1-2.078.953-2.255a2.325,2.325,0,0,1,.62-.076c.182,0,.284-.077.284-.178,0-.152-.18-.178-.463-.178-1.057,0-1.908.077-2.192.077s-1.52-.077-2.681-.077c-.31,0-.515.026-.515.178,0,.1.026.178.206.178a6.894,6.894,0,0,1,1.265.127c.8.2.977.759,1,2.406l.284,12.87c-.825-.836-3.634-3.926-6.187-6.612-3.967-4.18-7.809-8.258-8.194-8.69-.258-.252-.7-.81-.9-.81s-.284.279-.284,1.266l-.024,14.516c0,2.306-.13,3.039-.775,3.217a3.577,3.577,0,0,1-.909.148,3.267,3.267,0,0,1-.9-.148c-.542-.152-1.286-.557-2.215-2.812-1.572-3.85-5.62-14.313-6.006-15.275-.309-.785-.411-.912-.566-.912s-.257.152-.566.987l-5.851,15.733c-.463,1.266-.979,2.229-2.164,2.382-.129.015-.318.031-.485.04-.274-.017-.653-.054-.92-.093-.772-.1-.928-.658-1.005-1.392-.129-1.065-.129-3.066-.129-5.5v-4.458c0-3.951,0-4.661.051-5.472.051-.886.258-1.317.955-1.444a3.839,3.839,0,0,1,.644-.076c.1,0,.206-.051.206-.152,0-.153-.128-.2-.412-.2-.773,0-2.4.077-2.526.077s-1.753-.077-2.6-.077c-.284,0-.412.051-.412.2,0,.1.1.152.205.152a3.451,3.451,0,0,1,.8.1c.568.128.825.558.877,1.42.051.811.051,1.521.051,5.472V165.7c0,2.433,0,4.434-.128,5.5-.1.734-.232,1.291-.748,1.392a3.917,3.917,0,0,1-.773.1c-.155,0-.207.076-.207.152,0,.151.129.2.413.2.773,0,2.4-.076,2.526-.076s1.718.074,3.124.076h.049c1.2,0,2.591-.076,2.871-.076s1.391.076,2.011.076c.231,0,.386-.052.386-.2,0-.1-.076-.152-.258-.152h-.257c-.439,0-.98-.228-.98-.735a5.278,5.278,0,0,1,.362-1.7l1.546-4.484a.269.269,0,0,1,.257-.2H181.6a.224.224,0,0,1,.232.152l2.4,6.231c.153.405,0,.633-.156.685-.1.024-.18.075-.18.176,0,.152.284.152.773.177,1.778.052,3.66.052,4.048.052.037,0,.073,0,.107,0l.073,0c1.158,0,2.241-.076,2.473-.076s1.262.076,2.733.076c.31,0,.463-.052.463-.2,0-.1-.078-.152-.206-.152a5.734,5.734,0,0,1-1.288-.152c-.7-.2-.955-.861-1-2.938l-.336-12.135c.825.912,3.738,4.1,6.726,7.271,2.733,2.888,6.442,6.611,6.726,6.866m-23.916-6.942H176.34c-.078,0-.128-.051-.078-.178l2.269-6.839q.192-.571.386,0l2.449,6.839c.024.1.024.178-.1.178" transform="translate(-119.562 -112.703)" fill="#fff"/>
    <path id="Path_29077" data-name="Path 29077" d="M332.969,170.666c2.038,1.8,4.639,2.736,8.5,2.736a15.2,15.2,0,0,0,4.641-.583c.463-.2.516-.253.669-.735a25.845,25.845,0,0,0,.568-3.243c0-.2-.052-.379-.182-.379-.154,0-.2.1-.255.38a4.8,4.8,0,0,1-.955,2.128c-1.031,1.038-2.551,1.266-4.485,1.266a9.224,9.224,0,0,1-9.3-9.271c0-2.584.437-4.838,2.321-6.612.9-.862,2.5-1.85,5.927-1.85a8.694,8.694,0,0,1,5.154,1.444,3.481,3.481,0,0,1,1.083,2.584c0,.354.026.532.206.532.153,0,.206-.152.232-.532s.026-1.773.076-2.609c.054-.912.13-1.216.13-1.419,0-.153-.052-.253-.333-.279a22.7,22.7,0,0,1-2.631-.379,22.343,22.343,0,0,0-3.735-.3c-3.969,0-6.313,1.191-7.859,2.711a10.012,10.012,0,0,0-2.889,6.916,9.618,9.618,0,0,0,3.118,7.5" transform="translate(-240.573 -112.702)" fill="#fff"/>
    <path id="Path_29078" data-name="Path 29078" d="M410.812,170.047c-.13,0-.18.1-.232.38-.18,1.04-.489,1.546-1.161,1.824a7.5,7.5,0,0,1-2.473.279c-2.527,0-2.913-.329-2.991-2.077-.026-.532,0-3.471,0-4.332v-2.229a.161.161,0,0,1,.18-.177c.44,0,2.991.051,3.686.127,1,.1,1.237.532,1.341.887a2.579,2.579,0,0,1,.1.837c0,.127.054.227.182.227.18,0,.18-.278.18-.481,0-.177.052-1.115.1-1.621.078-.837.206-1.267.206-1.419s-.05-.2-.128-.2c-.1,0-.208.127-.388.329-.232.253-.594.3-1.21.355-.594.051-3.764.051-4.1.051-.13,0-.156-.076-.156-.254v-6.992c0-.177.052-.253.156-.253.281,0,3.092.024,3.53.076,1.393.153,1.65.456,1.83.862a2.7,2.7,0,0,1,.154.912c0,.2.052.33.206.33.1,0,.156-.153.182-.28.05-.3.1-1.418.128-1.671.078-.71.206-1.013.206-1.191,0-.127-.024-.228-.1-.228-.127,0-.232.1-.359.127a7.122,7.122,0,0,1-1.111.126c-.591.026-5.721.026-5.9.026l-1.057-.051c-.567-.026-1.262-.026-1.856-.026-.283,0-.414.051-.414.2,0,.1.1.152.208.152a4.872,4.872,0,0,1,.877.076c.849.177,1.057.582,1.106,1.444.052.811.052,1.521.052,5.472v4.458c0,2.432,0,4.434-.128,5.5-.1.734-.232,1.291-.747,1.392a3.91,3.91,0,0,1-.773.1c-.156,0-.208.076-.208.152,0,.151.13.2.414.2.385,0,.979-.052,1.494-.052.542-.024.977-.024,1.031-.024.385,0,1,.024,2.012.076,1,.025,2.421.076,4.355.076,1,0,1.21,0,1.393-.658a24.65,24.65,0,0,0,.334-2.458c0-.177,0-.38-.154-.38" transform="translate(-291.406 -113.122)" fill="#fff"/>
    <rect id="Rectangle_4719" data-name="Rectangle 4719" width="119.232" height="0.081" transform="translate(0.146 16.205)" fill="#fff"/>
    <rect id="Rectangle_4720" data-name="Rectangle 4720" width="119.109" height="0.081" transform="translate(0.269 63.919)" fill="#fff"/>
    <path id="Path_29079" data-name="Path 29079" d="M165.68,74.293A9.606,9.606,0,0,0,160,81.56l0,.257a5.505,5.505,0,0,1,1.329-2.084c.083-.175.031-.371.174-.515a2.553,2.553,0,0,0,.254,1.029,10.7,10.7,0,0,0-1.26,2.772,3.855,3.855,0,0,1-.466-.883,3.893,3.893,0,0,0,3.176,3.122c.281.056.565.113.854.16a14.34,14.34,0,0,0,.635,2.91,5.951,5.951,0,0,1-2.243-.429l-.093-.053a10.634,10.634,0,0,1-.181-2.679c-.07-.112-.194-.185-.265-.3a11.067,11.067,0,0,0,.216,2.85l-.026.049a5.162,5.162,0,0,1-1.469-1.222c.761,1.665,3.042,2.131,4.662,2.169a13.325,13.325,0,0,0,6.451-1.81c.538.846,1.059,1.666,1.524,2.391a14.485,14.485,0,0,1-3.319,1.455,17.414,17.414,0,0,1-1.254-2.178l-.4-.14a11.452,11.452,0,0,0,1.372,2.359l-.042.056a10.918,10.918,0,0,1-3.369.431,10.852,10.852,0,0,1-1.1-2.326.739.739,0,0,0-.32-.146,12.1,12.1,0,0,0,1.165,2.465,5.424,5.424,0,0,1-2.054-.286,7.464,7.464,0,0,0,4.315.431,14.273,14.273,0,0,0,5.2-1.806c.444.688.821,1.27,1.095,1.679a16.209,16.209,0,0,1-2.368,1.209,7.482,7.482,0,0,0,2.511-1,2.4,2.4,0,0,0,.32.434,5.323,5.323,0,0,0-.128-.547c.519-.318,1.01-.669,1.5-1.008a10.309,10.309,0,0,0,3.288-3.968c.08.067.054.209.08.318a1.95,1.95,0,0,0,.09-.757c1.144-3.069-.08-7.191-2.381-9.468a10.466,10.466,0,0,0-11.8-2.208m-4.24,4.718a7.294,7.294,0,0,0-.976,1.282,8.99,8.99,0,0,1,1.154-2.073Zm2.894,2.587a6.049,6.049,0,0,0,1.491-.151,33.033,33.033,0,0,0,.865,3.276,7.983,7.983,0,0,1-2.277.27,17.807,17.807,0,0,1,.107-3.134Zm3.522-6.253a6.312,6.312,0,0,1,1.689-.7.559.559,0,0,1,.28.243,8.956,8.956,0,0,0-1.968.454m2.334.057a1.012,1.012,0,0,1,.131.42,14.075,14.075,0,0,0-2.326.024,11.124,11.124,0,0,1,2.194-.444m.167,1.055-.119.6a14.322,14.322,0,0,0-2.456-.581,16.766,16.766,0,0,1,2.575-.017m3.238,2.859a8.269,8.269,0,0,1-1.136,1.751,30.749,30.749,0,0,0-2.492-2.118,5.161,5.161,0,0,0,.835-1.26l.1.372a17.735,17.735,0,0,1,2.694,1.255m-2.652-1.973a2.318,2.318,0,0,0,.223-1.115l.21.264a14.646,14.646,0,0,1,2.746.579,5.4,5.4,0,0,1-.3,1.672,21.518,21.518,0,0,0-2.883-1.4m-1,.4-.554.77c-.657-.5-1.371-1.019-2.042-1.468a12.292,12.292,0,0,1,2.6.7m-1.07,1.313a6.025,6.025,0,0,1-.878.71l-1.31-2.219a17.1,17.1,0,0,1,2.188,1.509m-1.419,1.033a8.629,8.629,0,0,1-1.123.541,22.288,22.288,0,0,1-.289-2.753Zm-2.075-1.987a19.356,19.356,0,0,0,.321,2.719,3.864,3.864,0,0,1-1.023.149,15.816,15.816,0,0,1,.7-2.868m1.076,3.437-.264-.188a8.8,8.8,0,0,0,1.631-.678c.381.6,1.023,1.627,1.775,2.82a11.8,11.8,0,0,1-2.4,1.072,21.91,21.91,0,0,1-.742-3.027m3.483,1.371-.181-.3-1.4-2.26a7.377,7.377,0,0,0,1.37-1.139.958.958,0,0,0,.013.425,26.208,26.208,0,0,1,2.286,1.954,11.721,11.721,0,0,1-1.924,1.582Zm.453.73a11.2,11.2,0,0,0,2.3-1.916l.021.455a16.682,16.682,0,0,1,1.837,1.942,14.1,14.1,0,0,1-2.552,2.112ZM172.9,81.5a9.341,9.341,0,0,0,1.381-2.095l.046.372a15.112,15.112,0,0,1,2.1,1.577,10.831,10.831,0,0,1-1.495,2.32c-.637-.728-1.3-1.491-2.033-2.175m4.139.056.105.445a12.79,12.79,0,0,1,1.385,1.692,10.9,10.9,0,0,1-1.739,2.637,19.044,19.044,0,0,0-1.5-2.161,11.729,11.729,0,0,0,1.747-2.614m-.389-.73a24.227,24.227,0,0,0-2.238-1.719,5.181,5.181,0,0,0,.437-2.061l.156.312a11.579,11.579,0,0,1,2.1,1.132,5.452,5.452,0,0,1-.455,2.335m.45-2.952a11.085,11.085,0,0,0-2.286-1.219,3.744,3.744,0,0,0-.362-1.34l.3.228a7.308,7.308,0,0,1,1.877.807,2.757,2.757,0,0,1,.476,1.524m-1.979-2.719c-.421-.2-1.109-.109-1.292-.658a6.765,6.765,0,0,1,1.292.658m-1.088,1.25a12.528,12.528,0,0,0-2.9-.548,2.088,2.088,0,0,0-.208-.725l.227.116a11.022,11.022,0,0,1,2.506.089,2.439,2.439,0,0,1,.375,1.068m-.777-1.634a11.078,11.078,0,0,0-2.558.013l-.35-.4c.6-.063,1.2-.279,1.793-.281.482-.046.868.392,1.115.668m-2.527-.92c-.495-.052-.984.407-1.45.011a5.731,5.731,0,0,1,1.45-.011m-1.964.469a6.116,6.116,0,0,0-1.456.725c.431-.314.82-1.01,1.456-.725m-2.2.244c.067-.305.459-.231.683-.306a2.61,2.61,0,0,0-.8.762Zm-.829.11a2.037,2.037,0,0,0-.268.641,1.449,1.449,0,0,1-.257-.4Zm-1.455.782.268.4a2.326,2.326,0,0,0-.736-.053c.153-.114.313-.23.468-.344m-1.157,1.029a2.642,2.642,0,0,1,.709.111,4.789,4.789,0,0,0-1.24.435,3.3,3.3,0,0,1,.532-.546m1.007,1.632a11.44,11.44,0,0,0-1.372,2.5,1.161,1.161,0,0,1-.476-.4,11.928,11.928,0,0,1,1.848-2.1m-.593-.826a9.509,9.509,0,0,0-1.609,1.223c.009-.84.929-.993,1.609-1.223m.121.523a9.672,9.672,0,0,0-1.657,1.969,2,2,0,0,1-.123-.582,12.638,12.638,0,0,1,1.78-1.387m-2.937,5.475a10.451,10.451,0,0,1,1.119-2.435,1.571,1.571,0,0,1-.028-.413,2.1,2.1,0,0,0,.745.74,18.148,18.148,0,0,0-.714,3.156,3.953,3.953,0,0,1-1.123-1.049m3.232,1.695a4.552,4.552,0,0,1-1.724-.484,10.394,10.394,0,0,1,.749-2.9l-.084-.274a3.585,3.585,0,0,0,1.108.269,17.563,17.563,0,0,0-.048,3.392m-.635-4.133a14.347,14.347,0,0,1,1.384-2.648,15.8,15.8,0,0,0-.64,2.783Zm1.657,7.5a13.805,13.805,0,0,1-.514-2.678l-.218-.236a9.666,9.666,0,0,0,2.614-.247c.349.951.708,1.9,1.139,2.79a10.019,10.019,0,0,1-3.021.37m3.391-.5a26.157,26.157,0,0,1-.958-2.549l-.3-.213a12.533,12.533,0,0,0,2.766-1.15c.066.105.135.211.2.318.021.035.042.067.064.1.445.7.908,1.438,1.368,2.163a13.05,13.05,0,0,1-3.14,1.329m3.855-1.244a16.124,16.124,0,0,0,2.984-2.332l-.034.488a12.641,12.641,0,0,1,1.347,1.929,15.862,15.862,0,0,1-2.81,2.317Zm5.579,1.97-.045-.028a8.58,8.58,0,0,0-.654-1.629,1.328,1.328,0,0,0-.18.355,9.433,9.433,0,0,1,.637,1.517,13.823,13.823,0,0,1-2.743,2.32,5.806,5.806,0,0,0-.248-.644,9.021,9.021,0,0,0-.669-1.132,15.689,15.689,0,0,0,4.061-3.742,15.477,15.477,0,0,0,.988-1.674,1.15,1.15,0,0,1,.059.429,7.909,7.909,0,0,1,.6,1.527,9.777,9.777,0,0,1-1.8,2.7m1.955-3.147a6.216,6.216,0,0,0-.712-1.671,8.584,8.584,0,0,0,.669-2.316,7.735,7.735,0,0,1,.042,3.987m-1.017-2.183a11.769,11.769,0,0,0-1.6-1.956,6.471,6.471,0,0,0,.61-2.6l.184.407a8.893,8.893,0,0,1,1.324,1.552,6.571,6.571,0,0,1-.52,2.6m.449-3.42a9.837,9.837,0,0,0-1.433-1.5,3.646,3.646,0,0,0-.244-1.292,7.568,7.568,0,0,1,1.676,2.787" transform="translate(-116.692 -53.857)" fill="#fff"/>
    <path id="Path_29080" data-name="Path 29080" d="M161.117,111.641a5.387,5.387,0,0,0,0,2.371,6.6,6.6,0,0,1,.168-1.978Z" transform="translate(-117.411 -81.946)" fill="#fff"/>
    <path id="Path_29081" data-name="Path 29081" d="M225.64,132.911c-.289.229-.087.538-.142.8a1.155,1.155,0,0,0,.142-.8" transform="translate(-164.452 -97.559)" fill="#fff"/>
  </g>
</svg>
